# xmcd CD database file
#
# Track frame offsets:
#	150
#	9733
#	20423
#	34960
#	48150
#	62718
#	74330
#	88413
#	100225
#	112847
#	125894
#	136329
#	149580
#	162062
#	174567
#	191416
#	214024
#	228998
#	243184
#	253908
#
# Disc length: 3537 seconds
#
# Revision: 0
# Processed by: cddbd v1.5.2PL0 Copyright (c) Steve Scherf et al.
# Submitted via: CDex 1.70beta3
#
DISCID=200dcf14
DTITLE=江利チエミ - Chiemi Sings
DYEAR=2006
DGENRE=Jazz
TTITLE0=Crazy Rhythm
TTITLE1=How High The Moon
TTITLE2=Cheek To Cheek
TTITLE3=You You You
TTITLE4=Again
TTITLE5=Come On-A My House
TTITLE6=Marina
TTITLE7=Rock Around The Clock
TTITLE8=Les Lavandieres Du Portugal (Kiki)
TTITLE9=Love Me Or Leave Me
TTITLE10=Blue Moon
TTITLE11=Papa Loves Mambo
TTITLE12=The Naughty Of Shady Lane
TTITLE13=Istanbul Mambo
TTITLE14=Tenderly
TTITLE15=The Big Twister
TTITLE16=Bigin The Beguine
TTITLE17=Carioka
TTITLE18=I Get A Kick Out Of You
TTITLE19=On The Sunny Side Of The Street
EXTD=YEAR: 2006
EXTT0=
EXTT1=
EXTT2=
EXTT3=
EXTT4=
EXTT5=
EXTT6=
EXTT7=
EXTT8=
EXTT9=
EXTT10=
EXTT11=
EXTT12=
EXTT13=
EXTT14=
EXTT15=
EXTT16=
EXTT17=
EXTT18=
EXTT19=
PLAYORDER=
